# Blender 4.5.2 LTS
# www.blender.org
mtllib indented_box.mtl
o Cube
v 0.350000 0.500000 -0.350000
v 0.350000 -0.500000 -0.350000
v 0.350000 0.350000 0.500000
v 0.350000 -0.500000 0.350000
v -0.500000 0.350000 -0.350000
v -0.350000 -0.500000 -0.350000
v -0.350000 0.350000 0.500000
v -0.350000 -0.500000 0.350000
v -0.500000 -0.350000 -0.350000
v -0.350000 -0.350000 0.500000
v 0.500000 -0.350000 -0.350000
v 0.350000 -0.350000 0.500000
v -0.500000 -0.500000 -0.500000
v -0.500000 -0.500000 0.500000
v 0.500000 -0.500000 -0.500000
v 0.500000 -0.500000 0.500000
v -0.500000 -0.500000 -0.500000
v -0.500000 -0.500000 0.500000
v 0.500000 -0.500000 -0.500000
v 0.500000 -0.500000 0.500000
v -0.500000 -0.500000 -0.500000
v -0.500000 -0.500000 0.500000
v 0.500000 -0.500000 -0.500000
v 0.500000 -0.500000 0.500000
v -0.500000 -0.500000 -0.500000
v -0.500000 -0.500000 0.500000
v 0.500000 -0.500000 -0.500000
v 0.500000 -0.500000 0.500000
v -0.500000 -0.500000 -0.500000
v -0.500000 -0.500000 0.500000
v 0.500000 -0.500000 -0.500000
v 0.500000 -0.500000 0.500000
v -0.500000 -0.350000 0.350000
v -0.500000 0.350000 0.350000
v 0.350000 0.500000 0.350000
v 0.500000 -0.350000 0.350000
v -0.500000 -0.500000 -0.500000
v -0.500000 -0.500000 0.500000
v 0.500000 -0.500000 -0.500000
v 0.500000 -0.500000 0.500000
v -0.350000 -0.350000 -0.500000
v -0.500000 -0.500000 0.500000
v -0.350000 0.500000 0.350000
v -0.350000 0.500000 -0.350000
v 0.500000 0.350000 0.350000
v -0.500000 0.500000 0.500000
v 0.500000 0.350000 -0.350000
v -0.350000 0.350000 -0.500000
v 0.350000 0.350000 -0.500000
v 0.350000 -0.350000 -0.500000
v 0.500000 0.500000 0.500000
v 0.500000 -0.500000 0.500000
v -0.500000 -0.500000 0.500000
v -0.500000 0.500000 0.500000
v 0.500000 0.500000 0.500000
v 0.500000 -0.500000 0.500000
v 0.500000 -0.500000 -0.500000
v -0.500000 -0.500000 -0.500000
v 0.500000 0.500000 -0.500000
v -0.500000 0.500000 -0.500000
v 0.350000 -0.350000 -0.350000
v -0.350000 -0.350000 -0.350000
v 0.350000 0.350000 -0.350000
v -0.350000 0.350000 -0.350000
v -0.350000 -0.350000 -0.350000
v -0.350000 -0.350000 0.350000
v 0.350000 -0.350000 -0.350000
v 0.350000 -0.350000 0.350000
v 0.350000 0.350000 -0.350000
v 0.350000 -0.350000 -0.350000
v 0.350000 0.350000 0.350000
v 0.350000 -0.350000 0.350000
v -0.350000 -0.350000 0.350000
v -0.350000 0.350000 0.350000
v 0.350000 0.350000 0.350000
v 0.350000 -0.350000 0.350000
v -0.350000 -0.350000 -0.350000
v -0.350000 -0.350000 0.350000
v -0.350000 0.350000 0.350000
v -0.350000 0.350000 -0.350000
v 0.350000 0.350000 0.350000
v -0.350000 0.350000 0.350000
v 0.350000 0.350000 -0.350000
v -0.350000 0.350000 -0.350000
vn -0.0000 -0.0000 1.0000
vn -0.0000 1.0000 -0.0000
vn -0.0000 -1.0000 -0.0000
vn -0.0000 -0.0000 -1.0000
vn 1.0000 -0.0000 -0.0000
vn -1.0000 -0.0000 -0.0000
vt 0.662500 0.537500
vt 0.837500 0.537500
vt 0.412500 0.962500
vt 0.412500 0.787500
vt 0.587500 0.037500
vt 0.587500 0.212500
vt 0.337500 0.712500
vt 0.162500 0.712500
vt 0.587500 0.537500
vt 0.587500 0.712500
vt 0.412500 0.287500
vt 0.587500 0.287500
vt 0.125000 0.500000
vt 0.125000 0.750000
vt 0.375000 0.500000
vt 0.375000 0.750000
vt 0.000000 0.000000
vt 0.625000 1.000000
vt 0.625000 0.750000
vt 0.375000 1.000000
vt 0.162500 0.537500
vt 0.337500 0.537500
vt 0.412500 0.037500
vt 0.412500 0.212500
vt 0.375000 0.250000
vt 0.375000 0.000000
vt 0.625000 0.000000
vt 0.625000 0.250000
vt 0.662500 0.712500
vt 0.837500 0.712500
vt 0.875000 0.750000
vt 0.625000 0.500000
vt 0.875000 0.500000
vt 0.412500 0.537500
vt 0.412500 0.712500
vt 0.587500 0.962500
vt 0.587500 0.787500
vt 0.412500 0.462500
vt 0.587500 0.462500
s 0
usemtl Material
f 1/1/1 44/2/1 84/2/1 83/1/1
f 10/3/2 12/4/2 76/4/2 73/3/2
f 34/5/3 5/6/3 80/6/3 79/5/3
f 4/7/4 8/8/4 66/8/4 68/7/4
f 47/9/3 45/10/3 71/10/3 69/9/3
f 41/11/5 48/12/5 64/12/5 62/11/5
f 13/13/2 14/14/2 42/14/2 58/13/2
f 15/15/2 13/13/2 58/13/2 57/15/2
f 14/14/2 16/16/2 52/16/2 42/14/2
f 16/16/2 15/15/2 57/15/2 52/16/2
f 17/13/2 18/14/2 14/14/2 13/13/2
f 19/15/2 17/13/2 13/13/2 15/15/2
f 18/14/2 20/16/2 16/16/2 14/14/2
f 20/16/2 19/15/2 15/15/2 16/16/2
f 21/13/2 22/14/2 18/14/2 17/13/2
f 23/15/2 21/13/2 17/13/2 19/15/2
f 22/14/2 24/16/2 20/16/2 18/14/2
f 24/16/2 23/15/2 19/15/2 20/16/2
f 25/13/2 26/14/2 22/14/2 21/13/2
f 27/15/2 25/13/2 21/13/2 23/15/2
f 26/14/2 28/16/2 24/16/2 22/14/2
f 28/16/2 27/15/2 23/15/2 24/16/2
f 29/13/2 30/14/2 26/14/2 25/13/2
f 31/15/2 29/13/2 25/13/2 27/15/2
f 30/14/2 32/16/2 28/16/2 26/14/2
f 32/16/2 31/15/2 27/15/2 28/16/2
f 37/13/2 38/14/2 30/14/2 29/13/2
f 39/15/2 37/13/2 29/13/2 31/15/2
f 38/14/2 40/16/2 32/16/2 30/14/2
f 40/16/2 39/15/2 31/15/2 32/16/2
f 53/17/2 54/17/2 46/17/2 42/17/2
f 55/17/2 56/17/2 52/17/2 51/17/2
f 54/18/2 55/19/2 51/19/2 46/18/2
f 56/16/2 53/20/2 42/20/2 52/16/2
f 6/21/3 8/8/3 38/14/3 37/13/3
f 2/22/3 6/21/3 37/13/3 39/15/3
f 8/8/3 4/7/3 40/16/3 38/14/3
f 4/7/3 2/22/3 39/15/3 40/16/3
f 33/23/6 9/24/6 58/25/6 42/26/6
f 34/5/6 33/23/6 42/26/6 46/27/6
f 9/24/6 5/6/6 60/28/6 58/25/6
f 5/6/6 34/5/6 46/27/6 60/28/6
f 35/29/2 43/30/2 46/31/2 51/19/2
f 1/1/2 35/29/2 51/19/2 59/32/2
f 43/30/2 44/2/2 60/33/2 46/31/2
f 44/2/2 1/1/2 59/32/2 60/33/2
f 47/9/5 11/34/5 57/15/5 59/32/5
f 36/35/5 45/10/5 51/19/5 52/16/5
f 45/10/5 47/9/5 59/32/5 51/19/5
f 11/34/5 36/35/5 52/16/5 57/15/5
f 10/3/1 7/36/1 54/18/1 53/20/1
f 3/37/1 12/4/1 56/16/1 55/19/1
f 7/36/1 3/37/1 55/19/1 54/18/1
f 12/4/1 10/3/1 53/20/1 56/16/1
f 41/11/4 50/38/4 57/15/4 58/25/4
f 50/38/4 49/39/4 59/32/4 57/15/4
f 48/12/4 41/11/4 58/25/4 60/28/4
f 49/39/4 48/12/4 60/28/4 59/32/4
f 62/11/4 64/12/4 63/39/4 61/38/4
f 50/38/2 41/11/2 62/11/2 61/38/2
f 48/12/3 49/39/3 63/39/3 64/12/3
f 49/39/6 50/38/6 61/38/6 63/39/6
f 65/21/3 67/22/3 68/7/3 66/8/3
f 8/8/5 6/21/5 65/21/5 66/8/5
f 2/22/6 4/7/6 68/7/6 67/22/6
f 6/21/1 2/22/1 67/22/1 65/21/1
f 70/34/5 69/9/5 71/10/5 72/35/5
f 11/34/1 47/9/1 69/9/1 70/34/1
f 36/35/2 11/34/2 70/34/2 72/35/2
f 45/10/4 36/35/4 72/35/4 71/10/4
f 76/4/1 75/37/1 74/36/1 73/3/1
f 12/4/6 3/37/6 75/37/6 76/4/6
f 3/37/3 7/36/3 74/36/3 75/37/3
f 7/36/5 10/3/5 73/3/5 74/36/5
f 78/23/6 79/5/6 80/6/6 77/24/6
f 33/23/4 34/5/4 79/5/4 78/23/4
f 5/6/1 9/24/1 77/24/1 80/6/1
f 9/24/2 33/23/2 78/23/2 77/24/2
f 83/1/2 84/2/2 82/30/2 81/29/2
f 35/29/6 1/1/6 83/1/6 81/29/6
f 44/2/5 43/30/5 82/30/5 84/2/5
f 43/30/4 35/29/4 81/29/4 82/30/4
